<?xml version="1.0" encoding="utf-8"?>
<!-- Generator: Adobe Illustrator 24.1.2, SVG Export Plug-In . SVG Version: 6.00 Build 0)  -->
<svg version="1.1" xmlns="http://www.w3.org/2000/svg" xmlns:xlink="http://www.w3.org/1999/xlink" x="0px" y="0px"
	 viewBox="0 0 400 200" style="enable-background:new 0 0 400 200;" xml:space="preserve">
<style type="text/css">
	.st0{fill:url(#SVGID_1_);}
	.st1{fill:#CCCCFF;}
	.st2{fill:#FF6666;}
</style>
<g id="Layer_2">
	<radialGradient id="SVGID_1_" cx="200" cy="100" r="157.1655" gradientUnits="userSpaceOnUse">
		<stop  offset="0" style="stop-color:#FFFFFF"/>
		<stop  offset="1" style="stop-color:#F8E9A1"/>
	</radialGradient>
	<rect x="1" y="1" class="st0" width="398" height="198"/>
</g>
<g id="Layer_1">
	<g>
		<path class="st1" d="M182.1,42.5V20.2h32.1v2.2h1.8v17.9h-1.8v2.2H182.1z M185.8,24.7v13.2h26.5V24.7H185.8z"/>
		<path class="st1" d="M221.2,42.5V20.2H255v4.6h-30.2V29H255v4.6h-30.2v4.3H255v4.6H221.2z"/>
		<path class="st1" d="M260.2,42.5v-4.6h30.2v-4.3h-30.2V20.2h33.8v4.6h-30.2V29h30.2v13.5H260.2z"/>
		<path class="st1" d="M302.9,42.5h-3.6V20.2h3.6V42.5z"/>
		<path class="st1" d="M308.2,20.2H342v4.6h-30.2v13.2h26.5v-4.3h-17.8V29H342v13.5h-33.8V20.2z"/>
		<path class="st1" d="M350.9,42.5h-3.6V20.2h33.8v22.3h-3.7V24.7h-26.5V42.5z"/>
		<path class="st1" d="M182.1,67.6V45.3h32.1v2.2h1.8v17.9h-1.8v2.2H182.1z M185.8,49.9v13.2h26.5V49.9H185.8z"/>
		<path class="st1" d="M221.2,67.6V45.3H255v4.6h-30.2v4.3H255v4.6h-30.2v4.3H255v4.6H221.2z"/>
		<path class="st1" d="M260.2,67.6v-4.6h30.2v-4.3h-30.2V45.3h33.8v4.6h-30.2v4.3h30.2v13.5H260.2z"/>
		<path class="st1" d="M302.9,67.6h-3.6V45.3h3.6V67.6z"/>
		<path class="st1" d="M308.2,45.3H342v4.6h-30.2v13.2h26.5v-4.3h-17.8v-4.6H342v13.5h-33.8V45.3z"/>
		<path class="st1" d="M350.9,67.6h-3.6V45.3h33.8v22.3h-3.7V49.9h-26.5V67.6z"/>
		<path class="st1" d="M182.1,92.8V70.5h32.1v2.2h1.8v17.9h-1.8v2.2H182.1z M185.8,75v13.2h26.5V75H185.8z"/>
		<path class="st1" d="M221.2,92.8V70.5H255V75h-30.2v4.3H255v4.6h-30.2v4.3H255v4.6H221.2z"/>
		<path class="st1" d="M260.2,92.8v-4.6h30.2v-4.3h-30.2V70.5h33.8V75h-30.2v4.3h30.2v13.5H260.2z"/>
		<path class="st1" d="M302.9,92.8h-3.6V70.5h3.6V92.8z"/>
		<path class="st1" d="M308.2,70.5H342V75h-30.2v13.2h26.5v-4.3h-17.8v-4.6H342v13.5h-33.8V70.5z"/>
		<path class="st1" d="M350.9,92.8h-3.6V70.5h33.8v22.3h-3.7V75h-26.5V92.8z"/>
		<path class="st2" d="M182.1,117.9V95.6h32.1v2.2h1.8v17.9h-1.8v2.2H182.1z M185.8,100.2v13.2h26.5v-13.2H185.8z"/>
		<path class="st2" d="M221.2,117.9V95.6H255v4.6h-30.2v4.3H255v4.6h-30.2v4.3H255v4.6H221.2z"/>
		<path class="st2" d="M260.2,117.9v-4.6h30.2V109h-30.2V95.6h33.8v4.6h-30.2v4.3h30.2v13.5H260.2z"/>
		<path class="st2" d="M302.9,117.9h-3.6V95.6h3.6V117.9z"/>
		<path class="st2" d="M308.2,95.6H342v4.6h-30.2v13.2h26.5V109h-17.8v-4.6H342v13.5h-33.8V95.6z"/>
		<path class="st2" d="M350.9,117.9h-3.6V95.6h33.8v22.3h-3.7v-17.8h-26.5V117.9z"/>
		<path class="st1" d="M182.1,143.1v-22.3h32.1v2.2h1.8v17.9h-1.8v2.2H182.1z M185.8,125.3v13.2h26.5v-13.2H185.8z"/>
		<path class="st1" d="M221.2,143.1v-22.3H255v4.6h-30.2v4.3H255v4.6h-30.2v4.3H255v4.6H221.2z"/>
		<path class="st1" d="M260.2,143.1v-4.6h30.2v-4.3h-30.2v-13.4h33.8v4.6h-30.2v4.3h30.2v13.5H260.2z"/>
		<path class="st1" d="M302.9,143.1h-3.6v-22.3h3.6V143.1z"/>
		<path class="st1" d="M308.2,120.8H342v4.6h-30.2v13.2h26.5v-4.3h-17.8v-4.6H342v13.5h-33.8V120.8z"/>
		<path class="st1" d="M350.9,143.1h-3.6v-22.3h33.8v22.3h-3.7v-17.8h-26.5V143.1z"/>
		<path class="st1" d="M182.1,168.2v-22.3h32.1v2.2h1.8V166h-1.8v2.2H182.1z M185.8,150.5v13.2h26.5v-13.2H185.8z"/>
		<path class="st1" d="M221.2,168.2v-22.3H255v4.6h-30.2v4.3H255v4.6h-30.2v4.3H255v4.6H221.2z"/>
		<path class="st1" d="M260.2,168.2v-4.6h30.2v-4.3h-30.2v-13.4h33.8v4.6h-30.2v4.3h30.2v13.5H260.2z"/>
		<path class="st1" d="M302.9,168.2h-3.6v-22.3h3.6V168.2z"/>
		<path class="st1" d="M308.2,145.9H342v4.6h-30.2v13.2h26.5v-4.3h-17.8v-4.6H342v13.5h-33.8V145.9z"/>
		<path class="st1" d="M350.9,168.2h-3.6v-22.3h33.8v22.3h-3.7v-17.8h-26.5V168.2z"/>
		<path class="st1" d="M182.1,193.4v-22.3h32.1v2.2h1.8v17.9h-1.8v2.2H182.1z M185.8,175.6v13.2h26.5v-13.2H185.8z"/>
		<path class="st1" d="M221.2,193.4v-22.3H255v4.6h-30.2v4.3H255v4.6h-30.2v4.3H255v4.6H221.2z"/>
		<path class="st1" d="M260.2,193.4v-4.6h30.2v-4.3h-30.2v-13.4h33.8v4.6h-30.2v4.3h30.2v13.5H260.2z"/>
		<path class="st1" d="M302.9,193.4h-3.6v-22.3h3.6V193.4z"/>
		<path class="st1" d="M308.2,171.1H342v4.6h-30.2v13.2h26.5v-4.3h-17.8v-4.6H342v13.5h-33.8V171.1z"/>
		<path class="st1" d="M350.9,193.4h-3.6v-22.3h33.8v22.3h-3.7v-17.8h-26.5V193.4z"/>
	</g>
	<path class="st2" d="M79.5,105.7C79.5,105.7,79.5,105.7,79.5,105.7c-0.4,0.1-0.8,0.1-1.1,0.1c0,0,0,0-0.1,0c0,0,0,0-0.1,0
		c-0.1,0-0.1,0-0.1,0c-0.1,0-0.2,0-0.2,0c0,0,0,0,0,0c0,0,0,0-0.1,0c0,0-0.1,0-0.1,0v46.4l-0.7,0.6c-12.5-15.5-25-31.1-37.5-46.6
		c0,0,0,0,0,0c-0.1-0.1-0.2-0.2-0.3-0.3c0,0,0,0,0,0H20.9v86.8h20.6v-46.8c1.3,1.1,2.2,1.6,2.9,2.4c6.9,8.5,13.7,17.1,20.5,25.7
		c3.7,4.6,7.2,9.4,10.9,14c1.5,1.8,3.2,4.5,5.1,4.7c5.9,0.6,12,0.2,18.3,0.2v-86.6c0.3-0.1,0.7-0.3,1-0.4H79.5z"/>
	<g>
		<path class="st2" d="M180.1,71.3c-0.3-16.1-0.1-32.1-0.1-48.2c0-1.2,0-2.4,0-3.5h-20.9c0,1.4,0,2.7,0,3.9c0,15.3,0,30.5,0,45.8
			c0,3.8-1.1,7.2-3.6,9.9c-5.6,6.4-15.3,8.3-23,4.7c-4.9-2.3-8.8-5.7-9.7-11.9c-0.5-3.5-0.5-7.1-0.6-10.6c-0.1-12.7,0-25.5,0-38.2
			c0-1.2-0.1-2.4-0.1-3.6h-20.7V45c-2.1-3.2-3.1-6.7-4.8-9.7C86.4,17.8,69,13.1,52.4,15.6c-10.5,1.5-19.1,7.2-26,16.2
			c-5.5,7.2-9.1,15.4-9.8,24.7c-1.6,20.5,6.1,36,21.9,46.7c0.3,0.2,0.6,0.5,1,0.9c0.1,0.1,0.2,0.1,0.3,0.2c0,0,0,0,0,0
			c0.2,0.1,0.4,0.2,0.7,0.3c0.3,0.1,0.6,0.3,1,0.5c12.5,5.2,24.9,5,37.7,0.1v0c0,0,0.1,0,0.1,0c0,0,0.1,0,0.1,0c0.1,0,0.2,0,0.2,0
			c0,0,0,0,0.1,0c0,0,0.1,0,0.1,0c0,0,0.1,0,0.1,0c0.1,0,0.2-0.1,0.3-0.1c0,0,0,0,0,0c0,0,0.1-0.1,0.1-0.1c0,0,0.1,0,0.1,0
			c0,0,0.1,0,0.1-0.1c0,0,0.1-0.1,0.1-0.1c0,0,0,0,0,0c0,0,0,0,0,0c0,0,0.1-0.1,0.1-0.1c0.7-0.6,1.4-1.3,2.1-1.8
			c7.6-4.5,13.4-11,16.4-20.1c0.5-1.7,0.9-3.4,1.4-5l0.9-0.1c2.4,13.2,10.5,21.3,20.8,27.3c0,0,0,0,0.1,0c0.1,0,0.1,0.1,0.2,0.1
			c0,0,0.1,0.1,0.1,0.1c0,0,0.1,0.1,0.1,0.1c0,0,0,0,0.1,0c0,0,0,0,0,0c0,0,0,0,0,0c0,0,0.1,0,0.1,0c0,0,0,0,0,0
			c11.9,5,23.7,5,36.4-0.4c0,0,0,0,0,0c0,0,0,0,0,0c0.2-0.1,0.3-0.1,0.5-0.2c0.1,0,0.1,0,0.2-0.1c0,0,0,0,0,0c0,0,0,0,0,0
			c0.8-0.6,1.7-1.3,2.5-1.8C173.5,95.5,180.3,86,180.1,71.3z M101.4,74.5c-7.1,0-14.1,0.1-21-0.1c-2-0.1-3.2,0.7-4.4,2.3
			c-5.3,7.5-12.5,10.1-20.6,8.4c-8.5-1.8-14.2-8-16-17.5c-2.4-13,2.9-25.2,15.7-28.9c7.1-2.1,16.1,1.5,20.5,7.9
			c1.3,1.9,2.6,3,5.1,2.9c5.8-0.3,11.6-0.1,17.4-0.1c1,0,2,0.1,3.2,0.2V74.5z"/>
	</g>
	<path class="st2" d="M158.7,105.6C158.7,105.6,158.7,105.6,158.7,105.6C158.7,105.6,158.7,105.6,158.7,105.6
		C158.7,105.6,158.7,105.6,158.7,105.6l-0.8,0c0,0,0,0,0,0c0,0,0,0,0,0c0,0-0.1,0-0.1,0c-1.6,4-2.9,7.1-4.3,10.1
		c-4.2,9.4-8.4,18.8-12.7,28.2c-0.3,0.6-1.1,1.5-1.3,1.4c-0.7-0.3-1.4-1-1.7-1.7c-3.3-7.5-6.6-15-9.9-22.5
		c-2.2-5.1-4.5-10.1-6.8-15.2c0,0,0,0,0,0c0,0,0,0,0-0.1c0,0,0,0,0,0c0,0,0,0,0,0c0,0,0,0,0,0c0,0,0,0,0,0c0,0,0,0,0,0c0,0,0,0,0,0
		c0,0,0,0,0,0c0,0,0,0,0,0c0,0,0,0,0,0c0,0,0,0,0,0c-0.1,0-0.2,0-0.3,0c-0.1,0-0.2,0-0.4,0c0,0,0,0,0,0c0,0-0.1,0-0.1,0h-20.1
		c0.7,1.3,1.5,2.5,2.1,3.8c8.6,19.4,17.1,38.8,25.6,58.2c0.7,1.7,1.2,3.7,1.2,5.5c0.1,6.4,0.1,12.8,0.1,19.3H150
		c0-6.5-0.1-12.8,0.1-19.1c0.1-2.3,0.5-4.8,1.4-6.9c6.1-14.1,12.4-28.1,18.6-42.2c2.7-6.1,5.4-12.3,8.2-18.8H158.7z"/>
</g>
</svg>
